<svg id="Capa_1" data-name="Capa 1" xmlns="http://www.w3.org/2000/svg" viewBox="0 0 99.21 60.27"><defs><style>.cls-1{fill:#1d1d1b;}.cls-2{fill:#fff;}</style></defs><title>gpit</title><path class="cls-1" d="M299.44,423.34q0,8.09-3.6,12.29a11.69,11.69,0,0,1-9.32,4.22,9.61,9.61,0,0,1-6-1.84,11,11,0,0,1-2.57-2.92v16h-8.2V435.2a8.24,8.24,0,0,1-3,3.3,10.64,10.64,0,0,1-6,1.46,11.54,11.54,0,0,1-9-4.24Q248,431.48,248,424.43q0-7.62,3.76-12.18a11.48,11.48,0,0,1,9.19-4.56,9.57,9.57,0,0,1,6.19,1.89,11.67,11.67,0,0,1,2.81,3.5v-4.53H270v-.05h7.62V413a13.93,13.93,0,0,1,2.75-3.1,10.13,10.13,0,0,1,6.34-2.06,11.87,11.87,0,0,1,9,3.95Q299.43,415.72,299.44,423.34Z" transform="translate(-248.03 -390.81)"/><path class="cls-2" d="M268.89,429.59a14,14,0,0,0,1.09-5.91,12.33,12.33,0,0,0-1-5,6,6,0,0,0-6-4,5.9,5.9,0,0,0-4.87,2.32q-1.85,2.32-1.84,7a13.68,13.68,0,0,0,.86,5.22,5.73,5.73,0,0,0,5.79,3.78A6.11,6.11,0,0,0,268.89,429.59Z" transform="translate(-248.03 -390.81)"/><path class="cls-2" d="M284.43,414.8a6,6,0,0,0-6,4.07,16.45,16.45,0,0,0-.81,5.56c0,3.55.94,6,2.81,7.45a6.37,6.37,0,0,0,4,1.26,5.83,5.83,0,0,0,5.13-2.55,12,12,0,0,0,1.74-6.85,11.82,11.82,0,0,0-1.63-6.25A5.68,5.68,0,0,0,284.43,414.8Z" transform="translate(-248.03 -390.81)"/><path class="cls-1" d="M339,440.59a10.62,10.62,0,0,1-4.34-.79,6.65,6.65,0,0,1-2.72-2.17,9,9,0,0,1-1.42-3.28,17.89,17.89,0,0,1-.43-4V407.69H315.61V440H305V407.69h-5.52v-8.44H347v8.44h-6.24v19.09c0,.58,0,1.15.05,1.7a3.84,3.84,0,0,0,.35,1.5,2.54,2.54,0,0,0,.91,1.06,3,3,0,0,0,1.69.4,8.78,8.78,0,0,0,3.47-.79V439a15.21,15.21,0,0,1-4,1.18A26.2,26.2,0,0,1,339,440.59Zm-23.43-41.34H305v8.44h10.65Zm0-8.44H305v8.44h10.65Z" transform="translate(-248.03 -390.81)"/></svg>